<?xml version="1.0" standalone="no"?>
<!DOCTYPE svg PUBLIC "-//W3C//DTD SVG 20010904//EN"
 "http://www.w3.org/TR/2001/REC-SVG-20010904/DTD/svg10.dtd">
<svg version="1.0" xmlns="http://www.w3.org/2000/svg"
 width="350.000000pt" height="350.000000pt" viewBox="0 0 350.000000 350.000000"
 preserveAspectRatio="xMidYMid meet">
<metadata>
Created by potrace 1.14, written by Peter Selinger 2001-2017
</metadata>
<g transform="translate(0.000000,350.000000) scale(0.100000,-0.100000)"
fill="#000000" stroke="none">
<path d="M725 3467 c-52 -24 -93 -66 -108 -110 -11 -35 -14 -169 -14 -805 0
-419 -2 -764 -4 -767 -3 -2 -79 39 -169 92 -190 110 -221 118 -270 73 -19 -18
-30 -38 -31 -57 0 -15 -1 -200 -1 -411 -1 -367 0 -385 19 -410 11 -15 36 -31
55 -36 41 -10 56 -4 263 117 71 41 132 74 134 72 2 -3 4 -179 5 -392 2 -427 1
-422 65 -476 76 -63 154 -61 274 8 45 27 100 59 123 71 23 13 180 103 350 202
170 98 335 193 367 211 l58 33 37 -29 c20 -16 75 -58 122 -93 47 -36 89 -71
93 -77 4 -7 13 -13 18 -13 11 0 -22 63 -111 215 -29 50 -62 106 -72 125 -72
126 -116 200 -139 237 l-26 43 -99 -112 c-141 -158 -140 -158 -152 -158 -23 0
-27 18 -37 150 -3 52 -8 109 -10 125 -2 17 -6 64 -10 105 -4 41 -8 91 -10 110
-5 49 -13 142 -20 225 -3 39 -8 88 -11 110 -5 42 -9 97 -20 235 -3 47 -8 87
-10 90 -1 3 1 12 5 19 10 16 24 9 149 -79 50 -36 169 -120 264 -187 95 -67
187 -131 203 -143 17 -12 103 -73 193 -136 89 -63 162 -119 162 -123 0 -19
-34 -30 -190 -61 -91 -19 -167 -35 -169 -37 -5 -4 7 -29 51 -104 18 -31 56
-95 83 -142 28 -48 53 -87 58 -87 6 0 43 20 150 84 18 10 153 88 301 173 148
86 282 163 297 172 16 9 109 62 207 119 99 57 189 113 200 125 66 70 63 208
-4 269 -11 9 -86 55 -169 103 -82 48 -154 90 -158 94 -7 7 278 180 333 202 23
10 68 61 79 91 17 45 6 124 -23 162 -20 27 -106 87 -151 105 -5 2 -26 14 -45
26 -19 12 -55 33 -80 47 -25 14 -244 140 -487 281 -243 141 -457 260 -475 265
-44 12 -120 -7 -154 -39 -53 -50 -57 -73 -57 -309 l0 -219 -28 15 c-16 8 -83
46 -151 86 -67 39 -137 79 -155 89 -47 27 -72 42 -328 189 -126 73 -243 141
-260 150 -16 10 -62 36 -102 59 -82 48 -156 61 -208 38z"/>
</g>
</svg>
